<svg width="64" height="54" viewBox="0 0 64 54" fill="none" xmlns="http://www.w3.org/2000/svg">
<g id="Logo" clip-path="url(#clip0_208_578)">
<path id="Vector" d="M6.99092 3.72061C18.2897 -4.25963 26.981 6.24901 26.981 6.24901L51.3959 35.7206C51.3959 35.7206 52.9366 38.2885 50.7243 40.2638C48.4724 42.2786 46.9317 40.8564 46.9317 40.8564C46.9317 40.8564 48.3539 43.9379 45.865 45.3996C43.3761 46.8614 41.6378 44.9651 41.6378 44.9651C41.6378 44.9651 43.0601 48.3626 40.6107 49.9428C38.1613 51.5231 35.6724 48.8762 35.6724 48.8762C35.6724 48.8762 36.6601 51.7206 34.3687 52.6688C32.0773 53.6169 30.3786 52.2737 30.3786 52.2737C26.665 49.6663 9.12425 31.9675 9.12425 31.9675C-0.831307 22.1305 -4.18933 11.6614 6.99092 3.72061Z" fill="white"/>
<path id="Vector_2" d="M21.0156 19.5625L38.3983 4.86622C38.3983 4.86622 49.7761 -5.5239 60.7193 6.6835C69.0946 16.086 57.3218 28.965 50.1316 34.5354L37.8452 19.4045C37.8452 19.4045 28.4032 27.1477 23.544 23.6317C23.0699 23.2761 20.5415 19.9971 21.0156 19.5625Z" fill="#0B29C6"/>
<path id="Vector (Stroke)" fill-rule="evenodd" clip-rule="evenodd" d="M39.6474 32.3894C39.7853 32.2719 39.9924 32.2885 40.1099 32.4264L47.142 40.6832C47.2595 40.8212 47.2429 41.0282 47.1049 41.1457C46.967 41.2632 46.7599 41.2467 46.6424 41.1087L39.6103 32.8519C39.4928 32.7139 39.5094 32.5069 39.6474 32.3894Z" fill="#0B29C6"/>
<path id="Vector (Stroke)_2" fill-rule="evenodd" clip-rule="evenodd" d="M34.3895 36.7776C34.5258 36.6582 34.7331 36.6719 34.8525 36.8082L41.8451 44.7884C41.9645 44.9247 41.9508 45.132 41.8145 45.2514C41.6782 45.3709 41.4709 45.3572 41.3515 45.2209L34.3589 37.2407C34.2395 37.1044 34.2532 36.8971 34.3895 36.7776Z" fill="#0B29C6"/>
<path id="Vector (Stroke)_3" fill-rule="evenodd" clip-rule="evenodd" d="M28.6603 40.9658C28.7962 40.846 29.0035 40.859 29.1234 40.9949L35.9185 48.6986C36.0383 48.8345 36.0253 49.0418 35.8894 49.1617C35.7535 49.2816 35.5462 49.2686 35.4263 49.1327L28.6312 41.429C28.5114 41.2931 28.5244 41.0857 28.6603 40.9658Z" fill="#0B29C6"/>
<path id="Vector (Stroke)_4" fill-rule="evenodd" clip-rule="evenodd" d="M38.0816 19.1418C37.9366 19.0331 37.731 19.0625 37.6223 19.2074L38.0816 19.1418ZM37.8848 19.4043C37.6879 19.6668 37.688 19.6669 37.6882 19.667L37.6888 19.6675L37.6906 19.6688L37.6972 19.6737L37.7215 19.6915C37.7426 19.707 37.7736 19.7294 37.8141 19.7581C37.895 19.8155 38.0138 19.8981 38.1674 20.0005C38.4746 20.2051 38.9214 20.4887 39.4834 20.8076C40.6064 21.4448 42.1941 22.2252 44.0503 22.7945C47.7606 23.9327 52.5893 24.2383 56.8942 20.8066C57.0359 20.6936 57.0592 20.4872 56.9463 20.3455C56.8333 20.2038 56.6269 20.1805 56.4852 20.2934C52.4148 23.5382 47.8411 23.271 44.2427 22.1672C42.4446 21.6156 40.9015 20.8577 39.8072 20.2368C39.2605 19.9267 38.8271 19.6514 38.5312 19.4543C38.3833 19.3558 38.2698 19.2768 38.1938 19.2229C38.1559 19.196 38.1273 19.1753 38.1085 19.1616L38.0876 19.1462L38.0827 19.1426L38.0816 19.1418M37.8848 19.4043L37.6879 19.6668C37.5429 19.5581 37.5136 19.3524 37.6223 19.2074" fill="#3051FF"/>
</g>
<defs>
<clipPath id="clip0_208_578">
<rect width="64" height="52.5432" fill="white" transform="translate(0 0.728516)"/>
</clipPath>
</defs>
</svg>
