<svg width="60" height="64" viewBox="0 0 60 64" fill="none" xmlns="http://www.w3.org/2000/svg">
<g id="Logo" clip-path="url(#clip0_208_633)">
<path id="Vector" d="M58.9352 25.6804L31.0398 0.863267C30.0141 -0.303018 28.1912 -0.284732 27.1884 0.900983L0.606059 25.5067C-0.788798 27.1564 0.378066 29.6838 2.53807 29.6924L5.49178 29.7038C6.01407 29.7061 6.43577 30.1307 6.43349 30.653L6.31578 61.0673C6.31063 62.4718 7.44436 63.6147 8.8495 63.6204L50.6426 63.7827C52.0472 63.7878 53.1901 62.6536 53.1958 61.2496L53.3118 31.2998C53.3146 30.521 53.9483 29.8924 54.7272 29.8953L57.0164 29.9044C59.2089 29.9124 60.3838 27.3273 58.9352 25.6804Z" fill="#0B29C6"/>
<path id="Vector_2" d="M42.8992 41.8792L30.006 54.6724L17.2129 41.7792C13.1786 38.1809 12.8295 32.2255 15.7712 28.7061C19.0649 24.7655 26.0095 24.4478 30.106 28.9861C33.6055 25.5495 38.7523 25.0284 42.0477 27.2684C46.1815 30.0775 47.2255 37.1107 42.8992 41.8792Z" fill="white"/>
<g id="Clip path group">
<mask id="mask0_208_633" style="mask-type:luminance" maskUnits="userSpaceOnUse" x="13" y="25" width="33" height="30">
<g id="SVGID_00000005248577822405539140000000976599208537017277_">
<path id="Vector_3" d="M42.8992 41.8792L30.006 54.6724L17.2129 41.7792C13.1786 38.1809 12.8295 32.2255 15.7712 28.7061C19.0649 24.7655 26.0095 24.4478 30.106 28.9861C33.6055 25.5495 38.7523 25.0284 42.0477 27.2684C46.1815 30.0775 47.2255 37.1107 42.8992 41.8792Z" fill="white"/>
</g>
</mask>
<g mask="url(#mask0_208_633)">
<g id="Group">
<g id="Group_2">
<path id="Vector_4" d="M25.5541 47.7111C25.5381 51.8774 23.8569 55.2488 21.7992 55.2408C19.7415 55.2328 18.0866 51.8488 18.1032 47.6826C18.1192 43.5163 19.8003 40.1448 21.8581 40.1528C23.9152 40.1603 25.5701 43.5443 25.5541 47.7111Z" fill="#6981FF"/>
<path id="Vector_5" d="M24.9237 36.0432C24.9175 37.7278 23.5466 39.0878 21.862 39.0815C20.1775 39.0752 18.8175 37.7043 18.8238 36.0198C18.83 34.3352 20.2009 32.9746 21.8855 32.9815C23.57 32.9878 24.9306 34.3586 24.9237 36.0432Z" fill="#6981FF"/>
</g>
<g id="Group_3">
<path id="Vector_6" d="M34.1918 53.8449C34.1758 58.0112 32.4946 61.3826 30.4369 61.3746C28.3792 61.3666 26.7243 57.9826 26.7409 53.8164C26.7569 49.6501 28.438 46.2786 30.4958 46.2866C32.5535 46.2946 34.2083 49.6786 34.1918 53.8449Z" fill="#6981FF"/>
<path id="Vector_7" d="M33.5621 42.1771C33.5558 43.8616 32.1849 45.2222 30.5003 45.2153C28.8158 45.2085 27.4558 43.8376 27.4621 42.1531C27.4683 40.4685 28.8398 39.1079 30.5238 39.1148C32.2083 39.1216 33.5683 40.4925 33.5621 42.1771Z" fill="#6981FF"/>
</g>
<g id="Group_4">
<path id="Vector_8" d="M42.8769 47.778C42.8609 51.9443 41.1798 55.3157 39.122 55.3077C37.0643 55.2997 35.4095 51.9157 35.426 47.7495C35.442 43.5832 37.1232 40.2117 39.1809 40.2197C41.2386 40.2277 42.8935 43.6117 42.8769 47.778Z" fill="#6981FF"/>
<path id="Vector_9" d="M42.2472 36.1101C42.2409 37.7947 40.8695 39.1547 39.1849 39.1484C37.5003 39.1421 36.1398 37.7712 36.1466 36.0867C36.1529 34.4021 37.5238 33.0415 39.2083 33.0484C40.8935 33.0547 42.2535 34.4255 42.2472 36.1101Z" fill="#6981FF"/>
</g>
</g>
</g>
</g>
</g>
<defs>
<clipPath id="clip0_208_633">
<rect width="60" height="64" fill="white"/>
</clipPath>
</defs>
</svg>
