<svg width="67" height="64" viewBox="0 0 67 64" fill="none" xmlns="http://www.w3.org/2000/svg">
<g id="Logo" clip-path="url(#clip0_208_548)">
<path id="Vector" fill-rule="evenodd" clip-rule="evenodd" d="M12.1917 12.6295C16.916 15.4265 24.3525 26.9788 28.3815 29.4139C33.8366 32.7108 37.5668 29.9035 42.2743 26.2512C49.063 20.9836 55.3268 18.3216 57.9828 17.7711C62.6362 16.8061 66.2116 20.4974 66.6609 24.3036C67.3575 30.2088 65.5404 35.4117 62.7439 40.7248C60.4684 45.0485 44.7789 62.4739 33.3592 63.6567C28.3093 64.1797 25.1824 61.7596 20.2293 57.6023C13.8855 52.278 10.657 48.6815 6.36897 41.3075C3.65589 36.6413 1.41286 29.7942 0.897837 24.3717C0.46108 19.7711 2.22886 6.73117 12.1917 12.6295Z" fill="#0B29C6"/>
<g id="Group">
<g id="Clip path group">
<mask id="mask0_208_548" style="mask-type:luminance" maskUnits="userSpaceOnUse" x="0" y="11" width="67" height="53">
<g id="SVGID_00000023253746441176860800000003674743595313227409_">
<path id="Vector_2" d="M12.1917 12.6295C16.916 15.4265 24.3525 26.9788 28.3815 29.4139C33.8366 32.7108 37.5668 29.9035 42.2743 26.2512C49.063 20.9836 55.3268 18.3216 57.9828 17.7711C62.6362 16.8061 66.2116 20.4974 66.6609 24.3036C67.3575 30.2088 65.5404 35.4117 62.7439 40.7248C60.4684 45.0485 44.7789 62.4739 33.3592 63.6567C28.3093 64.1797 25.1824 61.7596 20.2293 57.6023C13.8855 52.278 10.657 48.6815 6.36897 41.3075C3.65589 36.6413 1.41286 29.7942 0.897837 24.3717C0.46108 19.7711 2.22886 6.73117 12.1917 12.6295Z" fill="white"/>
</g>
</mask>
<g mask="url(#mask0_208_548)">
<path id="Vector_3" fill-rule="evenodd" clip-rule="evenodd" d="M22.8316 64.4836C23.8033 60.6856 24.6435 42.9352 21.2507 36.588C18.7201 31.8545 15.9893 26.9856 14.3352 21.8302C13.7791 20.0964 12.938 17.711 13.847 15.9353C14.9912 13.7004 16.7067 16.1565 17.7903 17.4525C21.4695 21.8521 24.8217 28.4809 30.794 30.1452C36.1968 31.6513 39.1932 27.9703 44.5571 25.0263C46.1437 24.1551 50.8563 21.0203 52.7599 23.0302C54.7914 25.1742 48.1 29.4203 45.9274 32.9645C44.4749 35.3345 43.2325 38.0778 42.6825 40.1293C40.2595 49.1637 44.6401 57.2211 45.8851 66.0467" fill="white"/>
</g>
</g>
</g>
<path id="Vector_4" fill-rule="evenodd" clip-rule="evenodd" d="M22.7906 0.276367C26.0914 0.276367 28.7707 2.93314 28.7707 6.20513C28.7707 9.47799 26.0909 12.1343 22.7906 12.1343C19.4894 12.1343 16.8101 9.47756 16.8101 6.20513C16.8096 2.93314 19.4894 0.276367 22.7906 0.276367Z" fill="#0B29C6"/>
<path id="Vector_5" d="M49.7662 16.9595C53.0691 16.9595 55.7467 14.3049 55.7467 11.0303C55.7467 7.75566 53.0691 5.10107 49.7662 5.10107C46.4632 5.10107 43.7856 7.75566 43.7856 11.0303C43.7856 14.3049 46.4632 16.9595 49.7662 16.9595Z" fill="#0B29C6"/>
<path id="Vector_6" d="M35.1439 24.6607C37.9045 24.6607 40.1424 22.442 40.1424 19.7051C40.1424 16.9682 37.9045 14.7495 35.1439 14.7495C32.3833 14.7495 30.1454 16.9682 30.1454 19.7051C30.1454 22.442 32.3833 24.6607 35.1439 24.6607Z" fill="white"/>
</g>
<defs>
<clipPath id="clip0_208_548">
<rect width="66.1622" height="64" fill="white" transform="translate(0.83783)"/>
</clipPath>
</defs>
</svg>
