<svg width="72" height="64" viewBox="0 0 72 64" fill="none" xmlns="http://www.w3.org/2000/svg">
<g id="Logo" clip-path="url(#clip0_204_451)">
<path id="Vector" d="M36.918 63.2717C43.7482 62.8694 48.9591 57.0062 48.5568 50.176C48.1545 43.3458 42.2914 38.1349 35.4611 38.5372C28.6309 38.9395 23.42 44.8026 23.8223 51.6329C24.2246 58.4631 30.0878 63.674 36.918 63.2717Z" fill="white"/>
<path id="Vector_2" d="M33.0138 48.4269C33.0119 49.0084 32.538 49.4778 31.9565 49.4758C31.375 49.4739 30.9057 49.0007 30.9077 48.4185C30.9096 47.837 31.3835 47.3677 31.965 47.3696C32.5465 47.3722 33.0164 47.8455 33.0138 48.4269Z" fill="#183DFF"/>
<path id="Vector_3" d="M41.7667 48.4606C41.7641 49.0421 41.2909 49.5115 40.7094 49.5095C40.1279 49.5076 39.6585 49.0337 39.6605 48.4522C39.6631 47.8707 40.1363 47.4014 40.7178 47.4033C41.2993 47.4059 41.7686 47.8791 41.7667 48.4606Z" fill="#183DFF"/>
<path id="Vector_4" d="M30.028 18.9633C34.676 23.9841 34.3745 31.8223 29.3537 36.4703C24.3329 41.1184 16.4948 40.8163 11.8468 35.7961C7.19873 30.7753 7.50016 22.9372 12.521 18.2892C17.5417 13.6411 25.3799 13.9426 30.028 18.9633Z" fill="#0B29C6"/>
<path id="Vector_5" d="M16.9421 27.7379C17.3369 28.1645 17.3116 28.8309 16.8844 29.2257C16.4579 29.6205 15.7915 29.5952 15.3967 29.1687C15.0019 28.7421 15.0271 28.0757 15.4537 27.6809C15.8809 27.2855 16.5467 27.3114 16.9421 27.7379Z" fill="white"/>
<path id="Vector_6" d="M23.3644 21.7914C23.7592 22.218 23.734 22.8844 23.3068 23.2792C22.8802 23.674 22.2138 23.6487 21.819 23.2221C21.4242 22.7956 21.4495 22.1291 21.8761 21.7344C22.3033 21.3396 22.9697 21.3648 23.3644 21.7914Z" fill="white"/>
<path id="Vector (Stroke)" fill-rule="evenodd" clip-rule="evenodd" d="M26.4065 26.0479C26.7997 25.9372 27.2082 26.1662 27.3189 26.5593C27.8918 28.594 27.306 30.7856 25.7885 32.2472L25.7885 32.2472C24.2136 33.764 21.8957 34.2446 19.8338 33.4897C19.4502 33.3492 19.2531 32.9244 19.3936 32.5409C19.534 32.1573 19.9588 31.9602 20.3424 32.1006C21.8783 32.663 23.5991 32.3021 24.7624 31.1818C25.8833 30.1022 26.3218 28.4756 25.8951 26.9603C25.7843 26.5671 26.0133 26.1586 26.4065 26.0479Z" fill="white"/>
<path id="Vector_7" d="M42.5789 19.0119C37.892 23.9964 38.1331 31.8365 43.1176 36.5234C48.1021 41.2103 55.9422 40.9692 60.6291 35.9847C65.3161 31.0002 65.0749 23.1601 60.0904 18.4732C55.1059 13.7863 47.2658 14.0274 42.5789 19.0119Z" fill="#6981FF"/>
<path id="Vector_8" d="M55.5967 27.8879C55.198 28.3119 55.2188 28.9776 55.6428 29.3763C56.0661 29.775 56.7325 29.7543 57.1311 29.3303C57.5292 28.907 57.5091 28.2406 57.0851 27.8419C56.6612 27.4439 55.9947 27.4639 55.5967 27.8879Z" fill="white"/>
<path id="Vector_9" d="M49.2198 21.8918C48.8211 22.3151 48.8418 22.9815 49.2652 23.3802C49.6891 23.7789 50.3555 23.7582 50.7535 23.3342C51.1516 22.9109 51.1315 22.2445 50.7075 21.8458C50.2849 21.4478 49.6185 21.4679 49.2198 21.8918Z" fill="white"/>
<path id="Vector_10" d="M36.2435 5.89682C35.8143 4.61391 35.3016 3.33748 34.4854 2.25877C33.6692 1.18006 32.514 0.305555 31.1825 0.0644017C28.9486 -0.340114 26.6524 1.21118 25.7831 3.30896C24.9138 5.40609 25.2911 7.86754 26.3387 9.88169C27.3863 11.8958 29.0394 13.5275 30.7709 14.9958C32.5024 16.4642 34.3454 17.8112 35.9265 19.4403C38.9928 17.5487 41.9229 14.7638 44.3597 12.1098C45.7451 10.6013 47.0468 8.91384 47.5239 6.92173C48.001 4.92961 47.4584 2.57188 45.7632 1.42186C44.1445 0.323708 41.895 0.593388 40.1992 1.56902C38.5033 2.54466 37.4674 4.37081 36.2435 5.89682Z" fill="white"/>
<path id="Vector_11" d="M62.2122 53.4934C63.4232 54.097 64.6879 54.637 66.0279 54.8224C67.3678 55.0084 68.8031 54.8094 69.9155 54.0386C71.7812 52.7453 72.3076 50.0246 71.4396 47.9268C70.5709 45.829 68.5645 44.3555 66.3993 43.6722C64.2341 42.989 61.9121 43.0039 59.649 43.1899C57.3866 43.376 55.1306 43.7267 52.8604 43.6923C52.0293 47.1982 51.9269 51.2394 52.0805 54.8386C52.168 56.8851 52.4403 58.9985 53.5112 60.7442C54.5822 62.49 56.6333 63.7736 58.6448 63.3885C60.5663 63.0203 61.9659 61.2389 62.4754 59.3498C62.9843 57.4614 62.4255 55.4376 62.2122 53.4934Z" fill="#0B29C6"/>
<path id="Vector_12" d="M9.81186 53.2902C8.59637 53.8846 7.32773 54.4143 5.98583 54.5899C4.64393 54.7656 3.21062 54.5556 2.10468 53.7764C0.248708 52.4688 -0.256298 49.7435 0.627932 47.6529C1.51281 45.5622 3.53088 44.1043 5.70127 43.4379C7.87165 42.7715 10.1937 42.8045 12.4548 43.0081C14.716 43.2116 16.9693 43.5799 19.2396 43.563C20.0434 47.0753 20.1141 51.1166 19.9332 54.7151C19.8301 56.761 19.541 58.8724 18.4565 60.6097C17.3719 62.347 15.3111 63.6151 13.3021 63.2138C11.3833 62.8307 9.99794 61.0382 9.50332 59.1459C9.0087 57.2524 9.58302 55.233 9.81186 53.2902Z" fill="white"/>
<path id="Vector (Stroke)_2" fill-rule="evenodd" clip-rule="evenodd" d="M53.2149 32.9889C53.3256 33.3821 53.0967 33.7906 52.7035 33.9013C50.6689 34.4742 48.4772 33.8884 47.0156 32.3709L47.0156 32.3709C45.4988 30.796 45.0182 28.4781 45.7732 26.4162C45.9136 26.0326 46.3384 25.8355 46.722 25.976C47.1055 26.1164 47.3026 26.5412 47.1622 26.9247C46.5999 28.4607 46.9607 30.1815 48.0811 31.3448C49.1606 32.4657 50.7873 32.9041 52.3025 32.4775C52.6957 32.3667 53.1042 32.5957 53.2149 32.9889Z" fill="white"/>
<path id="Vector (Stroke)_3" fill-rule="evenodd" clip-rule="evenodd" d="M41.013 53.6303C41.3693 53.83 41.4963 54.2808 41.2965 54.6371C40.263 56.4809 38.299 57.6164 36.1925 57.5768L36.1924 57.5768C34.0063 57.5357 32.0275 56.2366 31.1033 54.2448C30.9314 53.8742 31.0924 53.4345 31.4629 53.2626C31.8334 53.0907 32.2732 53.2517 32.4451 53.6222C33.1335 55.1059 34.6054 56.0675 36.2203 56.0979C37.7762 56.1271 39.2365 55.287 40.0062 53.9138C40.206 53.5575 40.6567 53.4305 41.013 53.6303Z" fill="#183DFF"/>
</g>
<defs>
<clipPath id="clip0_204_451">
<rect width="71.9571" height="64" fill="white" transform="translate(0.0428467)"/>
</clipPath>
</defs>
</svg>
