<svg width="64" height="60" viewBox="0 0 64 60" fill="none" xmlns="http://www.w3.org/2000/svg">
<g id="Logo" clip-path="url(#clip0_208_604)">
<path id="Vector" fill-rule="evenodd" clip-rule="evenodd" d="M26.0663 0.976562C27.8335 0.976562 29.2663 2.40937 29.2663 4.17657C29.2663 5.94426 27.8335 7.37706 26.0663 7.37706C24.2991 7.37706 22.8658 5.94426 22.8658 4.17657C22.8663 2.40937 24.2991 0.976562 26.0663 0.976562Z" fill="#0B29C6"/>
<path id="Vector_2" fill-rule="evenodd" clip-rule="evenodd" d="M31.2405 24.9026C22.656 18.8529 16.5061 8.78553 17.5425 1.25635C18.9118 4.88996 21.127 9.87651 27.9318 11.411C30.2869 7.25549 33.6223 3.01213 38.3206 1.25635C33.5623 7.18503 32.7641 15.2798 31.2405 24.9026Z" fill="white"/>
<path id="Vector_3" fill-rule="evenodd" clip-rule="evenodd" d="M4.0196 20.3432C4.9032 18.8127 6.86041 18.2883 8.39095 19.1719C9.92149 20.0555 10.4454 22.0127 9.5623 23.5432C8.6787 25.0738 6.7215 25.5982 5.19095 24.7146C3.66041 23.831 3.13601 21.8738 4.0196 20.3432Z" fill="#0B29C6"/>
<path id="Vector_4" fill-rule="evenodd" clip-rule="evenodd" d="M27.327 27.8253C17.796 32.2354 6.0026 32.5271 0 27.865C3.83157 28.4961 9.25767 29.0711 13.9887 23.9451C11.5676 19.8273 9.5608 14.8175 10.3888 9.87061C13.1443 16.9558 19.7552 21.6947 27.327 27.8253Z" fill="#6981FF"/>
<path id="Vector_5" fill-rule="evenodd" clip-rule="evenodd" d="M9.7057 48.9319C8.8221 47.4014 9.34651 45.4442 10.877 44.5606C12.4076 43.677 14.3648 44.2014 15.2484 45.7319C16.132 47.2624 15.6076 49.2197 14.0771 50.1033C12.5465 50.9873 10.5893 50.4629 9.7057 48.9319Z" fill="#0B29C6"/>
<path id="Vector_6" fill-rule="evenodd" clip-rule="evenodd" d="M27.839 32.4878C26.8924 42.9471 21.2485 53.3061 14.21 56.1742C16.6723 53.1712 19.8832 48.7597 17.8099 42.0997C13.0332 42.1374 7.69093 41.3704 3.82117 38.1798C11.3345 39.3363 18.7441 35.9805 27.839 32.4878Z" fill="white"/>
<path id="Vector_7" fill-rule="evenodd" clip-rule="evenodd" d="M37.4385 58.5489C35.6713 58.5489 34.2385 57.1161 34.2385 55.3489C34.2385 53.5812 35.6713 52.1489 37.4385 52.1489C39.2057 52.1489 40.6385 53.5817 40.6385 55.3489C40.6385 57.1166 39.2057 58.5489 37.4385 58.5489Z" fill="#0B29C6"/>
<path id="Vector_8" fill-rule="evenodd" clip-rule="evenodd" d="M32.2645 34.623C40.8489 40.6723 46.9983 50.7396 45.9624 58.2688C44.5931 54.6352 42.3779 49.6487 35.5736 48.1141C33.218 52.2702 29.8826 56.5125 25.1843 58.2688C29.9426 52.3401 30.7414 44.2459 32.2645 34.623Z" fill="#6981FF"/>
<path id="Vector_9" fill-rule="evenodd" clip-rule="evenodd" d="M59.4853 39.6755C58.6017 41.2061 56.6445 41.7305 55.1139 40.8469C53.5834 39.9633 53.0585 38.0056 53.9421 36.4756C54.8262 34.945 56.7834 34.4206 58.3134 35.3042C59.8445 36.1878 60.3689 38.145 59.4853 39.6755Z" fill="#0B29C6"/>
<path id="Vector_10" fill-rule="evenodd" clip-rule="evenodd" d="M36.1779 32.1938C45.7094 27.7843 57.5028 27.4921 63.5049 32.1542C59.6733 31.5231 54.2472 30.9481 49.5166 36.0745C51.9377 40.1919 53.9446 45.2022 53.116 50.1486C50.361 43.0634 43.7497 38.3244 36.1779 32.1938Z" fill="white"/>
<path id="Vector_11" fill-rule="evenodd" clip-rule="evenodd" d="M53.7997 10.5932C54.6833 12.1238 54.1589 14.081 52.6283 14.9646C51.0978 15.8482 49.1406 15.3238 48.257 13.7932C47.3734 12.2627 47.8978 10.3055 49.4283 9.42189C50.9584 8.53829 52.9156 9.06269 53.7997 10.5932Z" fill="#0B29C6"/>
<path id="Vector_12" fill-rule="evenodd" clip-rule="evenodd" d="M35.6658 27.0375C36.6124 16.5782 42.2563 6.21916 49.2949 3.35156C46.8326 6.3546 43.6212 10.7661 45.6955 17.4261C50.4722 17.3879 55.8144 18.1554 59.6842 21.346C52.1709 20.1895 44.7613 23.5453 35.6658 27.0375Z" fill="#6981FF"/>
</g>
<defs>
<clipPath id="clip0_208_604">
<rect width="64" height="58.0465" fill="white" transform="translate(0 0.976562)"/>
</clipPath>
</defs>
</svg>
