<svg xmlns="http://www.w3.org/2000/svg" width="117" height="269" viewBox="0 0 117 269" fill="none">
  <path d="M2 233.233C6 228.899 12.8 214.433 8 191.233C2 162.233 6.37925 140.648 28 132C40.5 127 83.5 130.733 75 106.733C73.0401 101.199 70.3961 94.4242 67.4657 87.2327M13 267.233C35.5 244.233 44.5 237.5 41.5 202C39.1 173.6 48 164.182 65 161.733C90.5 158.06 100.5 148 105 140.5C111 130.5 118.628 113.008 111.5 94C108.5 86 104.071 77 101.5 72.5M67.4657 87.2327C63 73 51.2451 49.1721 46.5 38.7327C42.5 28.3994 38.1314 10.0136 46.5 4.73274C54 -1.68085e-05 62.8333 6.39941 65 8.73274C82.4268 27.5 87.5 48 101.5 72.5M67.4657 87.2327V70.2327L85 81.2327V62.7327L101.5 72.5" stroke="white" stroke-width="5" stroke-linejoin="round"/>
</svg>