<svg width="64" height="64" viewBox="0 0 64 64" fill="none" xmlns="http://www.w3.org/2000/svg">
<g id="Logo" clip-path="url(#clip0_208_682)">
<path id="Vector" fill-rule="evenodd" clip-rule="evenodd" d="M31.9996 0C49.6612 0 64 14.3387 64 32C64 49.6616 49.6612 64 31.9996 64C14.3384 64 8.06351e-09 49.6613 8.06351e-09 32C-0.00039263 14.3387 14.3384 0 31.9996 0Z" fill="#0B29C6"/>
<mask id="mask0_208_682" style="mask-type:luminance" maskUnits="userSpaceOnUse" x="0" y="0" width="64" height="64">
<g id="SVGID_00000147204057264386637630000013107333870848550542_">
<path id="Vector_2" d="M31.9996 0C49.6612 0 64 14.3387 64 32C64 49.6616 49.6612 64 31.9996 64C14.3384 64 8.06351e-09 49.6613 8.06351e-09 32C-0.00039263 14.3387 14.3384 0 31.9996 0Z" fill="white"/>
</g>
</mask>
<g mask="url(#mask0_208_682)">
<path id="Vector_3" fill-rule="evenodd" clip-rule="evenodd" d="M41.9686 26.6367C44.4615 26.6367 46.4859 28.6612 46.4859 31.1544C46.4859 33.6473 44.4615 35.6717 41.9686 35.6717C39.4754 35.6717 37.4509 33.6473 37.4509 31.1544C37.4509 28.6612 39.475 26.6367 41.9686 26.6367Z" fill="white"/>
</g>
<mask id="mask1_208_682" style="mask-type:luminance" maskUnits="userSpaceOnUse" x="0" y="0" width="64" height="64">
<g id="SVGID_00000147204057264386637630000013107333870848550542__2">
<path id="Vector_4" d="M31.9996 0C49.6612 0 64 14.3387 64 32C64 49.6616 49.6612 64 31.9996 64C14.3384 64 8.06351e-09 49.6613 8.06351e-09 32C-0.00039263 14.3387 14.3384 0 31.9996 0Z" fill="white"/>
</g>
</mask>
<g mask="url(#mask1_208_682)">
<path id="Vector_5" fill-rule="evenodd" clip-rule="evenodd" d="M22.0765 36.4414C24.1367 36.4414 25.8089 38.114 25.8089 40.1742C25.8089 42.234 24.1367 43.9062 22.0765 43.9062C20.0167 43.9062 18.3445 42.234 18.3445 40.1742C18.3441 38.1144 20.0167 36.4414 22.0765 36.4414Z" fill="white"/>
</g>
<mask id="mask2_208_682" style="mask-type:luminance" maskUnits="userSpaceOnUse" x="0" y="0" width="64" height="64">
<g id="SVGID_00000147204057264386637630000013107333870848550542__3">
<path id="Vector_6" d="M31.9996 0C49.6612 0 64 14.3387 64 32C64 49.6616 49.6612 64 31.9996 64C14.3384 64 8.06351e-09 49.6613 8.06351e-09 32C-0.00039263 14.3387 14.3384 0 31.9996 0Z" fill="white"/>
</g>
</mask>
<g mask="url(#mask2_208_682)">
</g>
<mask id="mask3_208_682" style="mask-type:luminance" maskUnits="userSpaceOnUse" x="0" y="0" width="64" height="64">
<g id="SVGID_00000147204057264386637630000013107333870848550542__4">
<path id="Vector_7" d="M31.9996 0C49.6612 0 64 14.3387 64 32C64 49.6616 49.6612 64 31.9996 64C14.3384 64 8.06351e-09 49.6613 8.06351e-09 32C-0.00039263 14.3387 14.3384 0 31.9996 0Z" fill="white"/>
</g>
</mask>
<g mask="url(#mask3_208_682)">
<path id="Vector_8" fill-rule="evenodd" clip-rule="evenodd" d="M13.8857 62.7501C10.6413 57.1817 8.17204 43.2964 7.59879 39.6453C6.86338 34.9619 5.26378 32.1844 7.76488 31.3598C10.447 30.4752 12.4353 37.8392 17.732 43.6592C23.4343 49.9253 31.0299 45.794 32.5282 49.7341C33.2981 51.7582 28.0788 53.5859 25.8969 56.4302C22.3506 61.0535 22.6671 64.0179 22.8504 68.3526" fill="white"/>
<path id="Vector_9" fill-rule="evenodd" clip-rule="evenodd" d="M42.0918 69.0871C41.5622 66.738 41.9132 64.1312 41.7133 61.7412C41.3953 57.9429 40.2417 53.9662 37.9161 50.8966C36.8721 49.518 35.6443 48.1941 34.1696 47.2718C32.6681 46.333 30.9822 45.7106 29.5867 44.601C28.4591 43.7042 26.9973 42.0285 27.238 40.4434C27.5203 38.5799 29.9417 38.7743 31.2908 38.8932C35.5556 39.2686 39.844 39.8269 44.0342 38.5595C47.9155 37.3855 50.6596 34.4576 53.0841 31.3762C53.4941 30.8552 54.968 28.8708 55.9241 29.3887C57.4758 30.2281 57.2846 33.1866 57.3411 34.6202C57.5732 40.4363 56.8919 46.13 54.9853 51.6532C53.527 55.8788 51.5689 60.4389 48.4361 63.7064" fill="white"/>
</g>
</g>
<defs>
<clipPath id="clip0_208_682">
<rect width="64" height="64" fill="white"/>
</clipPath>
</defs>
</svg>
